Coordinates
version=1
nRows=25
nColumns=21
inDegrees=yes

Units are S.I. units (second, meters, Newtons, ...)
If the header above contains a line with 'inDegrees', this indicates whether rotational values are in degrees (yes) or radians (no).

endheader
time	sternoclavicular_r2	sternoclavicular_r3	unrotscap_r3	unrotscap_r2	acromioclavicular_r2	acromioclavicular_r3	acromioclavicular_r1	unrothum_r1	unrothum_r3	unrothum_r2	elv_angle	shoulder_elev	shoulder1_r2	shoulder_rot	elbow_flexion	pro_sup	deviation	flexion	wrist_hand_r1	wrist_hand_r3
      0.00000000	     -0.00540018	      0.00228726	     -0.00228726	      0.00540018	     -0.00109343	      0.00883669	      0.00397203	     -0.00397203	     -0.00883669	      0.00109343	     18.20387480	      0.02231474	    -18.20387480	    -12.09422766	    129.99686413	      0.00000000	      0.00000000	     -0.00000000	     -0.00000000	      0.00000000
      0.10101010	     -0.00547956	      0.00232088	     -0.00232088	      0.00547956	     -0.00110950	      0.00896658	      0.00403042	     -0.00403042	     -0.00896658	      0.00110950	     17.81763653	      0.02264275	    -17.81763653	    -12.09389520	    129.99686413	      0.00000000	      0.00000000	     -0.00000000	     -0.00000000	      0.00000000
      0.20202020	     -0.00556070	      0.00235525	     -0.00235525	      0.00556070	     -0.00112593	      0.00909936	      0.00409010	     -0.00409010	     -0.00909936	      0.00112593	     17.43516181	      0.02297805	    -17.43516181	    -12.09271462	    129.99686404	      0.00000000	      0.00000000	     -0.00000000	     -0.00000000	      0.00000000
      0.30303030	     -0.00564305	      0.00239013	     -0.00239013	      0.00564305	     -0.00114260	      0.00923412	      0.00415067	     -0.00415067	     -0.00923412	      0.00114260	     17.05658172	      0.02331835	    -17.05658172	    -12.08824067	    129.99686357	      0.00000000	      0.00000000	     -0.00000000	     -0.00000000	      0.00000000
      0.40404040	     -0.00572588	      0.00242521	     -0.00242521	      0.00572588	     -0.00115937	      0.00936966	      0.00421160	     -0.00421160	     -0.00936966	      0.00115937	     16.68193213	      0.02366062	    -16.68193213	    -12.07736099	    129.99686238	      0.00000000	      0.00000000	     -0.00000000	     -0.00000000	      0.00000000
      0.50505051	     -0.00580849	      0.00246020	     -0.00246020	      0.00580849	     -0.00117610	      0.00950483	      0.00427236	     -0.00427236	     -0.00950483	      0.00117610	     16.31117364	      0.02400197	    -16.31117364	    -12.05716669	    129.99686014	      0.00000000	      0.00000000	     -0.00000000	     -0.00000000	      0.00000000
      0.60606061	     -0.00589023	      0.00249482	     -0.00249482	      0.00589023	     -0.00119265	      0.00963859	      0.00433248	     -0.00433248	     -0.00963859	      0.00119265	     15.94420245	      0.02433973	    -15.94420245	    -12.02495215	    129.99685653	      0.00000000	      0.00000000	     -0.00000000	     -0.00000000	      0.00000000
      0.70707071	     -0.00597051	      0.00252883	     -0.00252883	      0.00597051	     -0.00120891	      0.00976996	      0.00439153	     -0.00439153	     -0.00976996	      0.00120891	     15.58085945	      0.02467148	    -15.58085945	    -11.97821634	    129.99685126	      0.00000000	      0.00000000	     -0.00000000	     -0.00000000	      0.00000000
      0.80808081	     -0.00604883	      0.00256200	     -0.00256200	      0.00604883	     -0.00122477	      0.00989812	      0.00444914	     -0.00444914	     -0.00989812	      0.00122477	     15.22093755	      0.02499511	    -15.22093755	    -11.91466476	    129.99684403	      0.00000000	      0.00000000	     -0.00000000	     -0.00000000	      0.00000000
      0.90909091	     -0.00612477	      0.00259416	     -0.00259416	      0.00612477	     -0.00124014	      0.01002238	      0.00450499	     -0.00450499	     -0.01002238	      0.00124014	     14.86418765	      0.02530889	    -14.86418765	    -11.83221185	    129.99683457	      0.00000000	      0.00000000	     -0.00000000	     -0.00000000	      0.00000000
      1.01010101	     -0.00619801	      0.00262518	     -0.00262518	      0.00619801	     -0.00125497	      0.01014223	      0.00455886	     -0.00455886	     -0.01014223	      0.00125497	     14.51032330	      0.02561155	    -14.51032330	    -11.72898350	    129.99682259	      0.00000000	      0.00000000	     -0.00000000	     -0.00000000	      0.00000000
      1.11111111	     -0.00626838	      0.00265499	     -0.00265499	      0.00626838	     -0.00126922	      0.01025738	      0.00461062	     -0.00461062	     -0.01025738	      0.00126922	     14.15902399	      0.02590233	    -14.15902399	    -11.60331940	    129.99680783	      0.00000000	      0.00000000	     -0.00000000	     -0.00000000	      0.00000000
      1.21212121	     -0.00633584	      0.00268356	     -0.00268356	      0.00633584	     -0.00128288	      0.01036777	      0.00466024	     -0.00466024	     -0.01036777	      0.00128288	     13.80993699	      0.02618108	    -13.80993699	    -11.45377500	    129.99679000	      0.00000000	      0.00000000	     -0.00000000	     -0.00000000	      0.00000000
      1.31313131	     -0.00640051	      0.00271095	     -0.00271095	      0.00640051	     -0.00129597	      0.01047359	      0.00470781	     -0.00470781	     -0.01047359	      0.00129597	     13.46267667	      0.02644831	    -13.46267667	    -11.27912301	    129.99676879	      0.00000000	      0.00000000	     -0.00000000	     -0.00000000	      0.00000000
      1.41414141	     -0.00646268	      0.00273729	     -0.00273729	      0.00646268	     -0.00130856	      0.01057533	      0.00475354	     -0.00475354	     -0.01057533	      0.00130856	     13.11681980	      0.02670523	    -13.11681980	    -11.07835406	    129.99674391	      0.00000000	      0.00000000	     -0.00000000	     -0.00000000	      0.00000000
      1.51515152	     -0.00652285	      0.00276277	     -0.00276277	      0.00652285	     -0.00132074	      0.01067379	      0.00479779	     -0.00479779	     -0.01067379	      0.00132074	     12.77189374	      0.02695385	    -12.77189374	    -10.85067666	    129.99671502	      0.00000000	      0.00000000	     -0.00000000	     -0.00000000	      0.00000000
      1.61616162	     -0.00658170	      0.00278770	     -0.00278770	      0.00658170	     -0.00133266	      0.01077009	      0.00484108	     -0.00484108	     -0.01077009	      0.00133266	     12.42735037	      0.02719704	    -12.42735037	    -10.59551606	    129.99668175	      0.00000000	      0.00000000	     -0.00000000	     -0.00000000	      0.00000000
      1.71717172	     -0.00664016	      0.00281246	     -0.00281246	      0.00664016	     -0.00134450	      0.01086575	      0.00488408	     -0.00488408	     -0.01086575	      0.00134450	     12.08253788	      0.02743860	    -12.08253788	    -10.31251203	    129.99664372	      0.00000000	      0.00000000	     -0.00000000	     -0.00000000	      0.00000000
      1.81818182	     -0.00669940	      0.00283755	     -0.00283755	      0.00669940	     -0.00135649	      0.01096269	      0.00492765	     -0.00492765	     -0.01096269	      0.00135649	     11.73663843	      0.02768340	    -11.73663843	    -10.00151560	    129.99660047	      0.00000000	      0.00000000	     -0.00000000	     -0.00000000	      0.00000000
      1.91919192	     -0.00676092	      0.00286360	     -0.00286360	      0.00676092	     -0.00136895	      0.01106336	      0.00497290	     -0.00497290	     -0.01106336	      0.00136895	     11.38858074	      0.02793761	    -11.38858074	     -9.66258454	    129.99655151	      0.00000000	      0.00000000	     -0.00000000	     -0.00000000	      0.00000000
      2.02020202	     -0.00682660	      0.00289142	     -0.00289142	      0.00682660	     -0.00138225	      0.01117084	      0.00502121	     -0.00502121	     -0.01117084	      0.00138225	     11.03691584	      0.02820902	    -11.03691584	     -9.29597744	    129.99649627	      0.00000000	      0.00000000	     -0.00000000	     -0.00000000	      0.00000000
      2.12121212	     -0.00689885	      0.00292203	     -0.00292203	      0.00689885	     -0.00139688	      0.01128906	      0.00507436	     -0.00507436	     -0.01128906	      0.00139688	     10.67964767	      0.02850757	    -10.67964767	     -8.90214644	    129.99643412	      0.00000000	      0.00000000	     -0.00000000	     -0.00000000	      0.00000000
      2.22222222	     -0.00698078	      0.00295673	     -0.00295673	      0.00698078	     -0.00141347	      0.01142314	      0.00513462	     -0.00513462	     -0.01142314	      0.00141347	     10.31400214	      0.02884615	    -10.31400214	     -8.48172846	    129.99636431	      0.00000000	      0.00000000	     -0.00000000	     -0.00000000	      0.00000000
      2.32323232	     -0.00707655	      0.00299729	     -0.00299729	      0.00707655	     -0.00143286	      0.01157984	      0.00520506	     -0.00520506	     -0.01157984	      0.00143286	      9.93613752	      0.02924186	     -9.93613752	     -8.03553451	    129.99628599	      0.00000000	      0.00000000	     -0.00000000	     -0.00000000	      0.00000000
      2.42424242	     -0.00719172	      0.00304607	     -0.00304607	      0.00719172	     -0.00145618	      0.01176830	      0.00528977	     -0.00528977	     -0.01176830	      0.00145618	      9.54082447	      0.02971777	     -9.54082447	     -7.56453645	    129.99619815	      0.00000000	      0.00000000	     -0.00000000	     -0.00000000	      0.00000000
